<?xml version="1.0" encoding="utf-8"?>
<!-- Generator: Adobe Illustrator 15.0.2, SVG Export Plug-In . SVG Version: 6.00 Build 0)  -->
<!DOCTYPE svg PUBLIC "-//W3C//DTD SVG 1.1//EN" "http://www.w3.org/Graphics/SVG/1.1/DTD/svg11.dtd">
<svg version="1.1" id="Layer_1" xmlns="http://www.w3.org/2000/svg" xmlns:xlink="http://www.w3.org/1999/xlink" x="0px" y="0px"
	 width="41px" height="21.083px" viewBox="0 0 41 21.083" enable-background="new 0 0 41 21.083" xml:space="preserve">
<g>
	<path fill="#FAAF40" d="M22.691,13.922c-0.061,0.745-0.567,1.352-1.131,1.352c0,0-0.45,0.098-0.904,0.113
		c-0.477,0.017-1.084-0.113-1.084-0.113c-0.565,0-1.071-0.606-1.13-1.352L17.477,1.9c-0.061-0.745,0.617-1.352,1.513-1.352h3.15
		c0.896,0,1.574,0.606,1.513,1.352L22.691,13.922z"/>
	<path fill="#FAAF40" d="M29.064,20.239c-0.67,0.333-1.449,0.21-1.74-0.274c0,0-0.313-0.335-0.559-0.718
		c-0.263-0.402-0.464-0.987-0.464-0.987c-0.288-0.484-0.03-1.23,0.58-1.666l9.815-7.006c0.611-0.435,1.477-0.165,1.938,0.603
		l1.621,2.704c0.459,0.768,0.288,1.659-0.384,1.993L29.064,20.239z"/>
	<path fill="#FAAF40" d="M12.046,20.239c0.672,0.333,1.451,0.21,1.743-0.274c0,0,0.314-0.335,0.56-0.718
		c0.261-0.402,0.462-0.987,0.462-0.987c0.29-0.484,0.031-1.23-0.58-1.666L4.416,9.587c-0.61-0.435-1.477-0.165-1.937,0.603
		l-1.62,2.704c-0.46,0.768-0.289,1.659,0.382,1.993L12.046,20.239z"/>
</g>
</svg>
