<?xml version="1.0" encoding="utf-8"?>
<!-- Generator: Adobe Illustrator 15.0.2, SVG Export Plug-In  -->
<!DOCTYPE svg PUBLIC "-//W3C//DTD SVG 1.1//EN" "http://www.w3.org/Graphics/SVG/1.1/DTD/svg11.dtd" [
	<!ENTITY ns_flows "http://ns.adobe.com/Flows/1.0/">
]>
<svg version="1.1"
	 xmlns="http://www.w3.org/2000/svg" xmlns:xlink="http://www.w3.org/1999/xlink" xmlns:a="http://ns.adobe.com/AdobeSVGViewerExtensions/3.0/"
	 x="0px" y="0px" width="206px" height="49px" viewBox="0 0 206 49" overflow="visible" enable-background="new 0 0 206 49"
	 xml:space="preserve">
<defs>
</defs>
<path fill="#1C75BC" d="M8.128,37.301c-1.203-0.601-2.32-2.62-2.32-2.62L0,10.213h6.811l2.13,11.574
	c0.627,3.383,1.212,7.019,1.671,9.86h0.084c0.459-3.051,1.128-6.435,1.838-9.902l2.382-11.532h6.768l2.256,11.866
	c0.627,3.301,1.086,6.309,1.504,9.443h0.083c0.417-3.134,1.044-6.435,1.629-9.777l2.298-11.532h6.476l-7.271,28.161
	c0,0-5.606-0.271-5.806-0.973c0,0-1.402-1.102-1.813-2.723c-0.527-2.08-1.655-8.421-1.655-8.421
	c-0.543-2.841-1.003-5.473-1.337-8.691h-0.083c-0.501,3.176-0.961,5.85-1.63,8.691l-2.674,12.117
	C13.662,38.374,9.688,38.082,8.128,37.301z"/>
<path fill="#1C75BC" d="M52.923,33.402c0,1.964,0.083,3.844,0.292,4.972h-5.724l-0.376-2.048H46.99
	c-1.336,1.63-3.426,2.507-5.849,2.507c-4.137,0-6.602-3.008-6.602-6.268c0-5.306,4.764-7.855,11.992-7.813v-0.292
	c0-1.087-0.585-2.633-3.719-2.633c-2.089,0-4.304,0.71-5.641,1.546l-1.169-4.094c1.42-0.794,4.22-1.797,7.938-1.797
	c6.811,0,8.983,4.012,8.983,8.816V33.402z M46.739,28.723c-3.342-0.042-5.932,0.752-5.932,3.217c0,1.629,1.085,2.424,2.506,2.424
	c1.587,0,2.883-1.045,3.301-2.34c0.083-0.334,0.125-0.71,0.125-1.086V28.723z"/>
<path fill="#1C75BC" d="M55.847,8.709h6.351v29.665h-6.351V8.709z"/>
<path fill="#1C75BC" d="M65.245,24.461c0-2.549-0.083-4.722-0.167-6.518h5.348l0.292,2.758h0.125
	c0.877-1.295,2.674-3.218,6.184-3.218c2.632,0,4.721,1.337,5.599,3.468h0.084c0.752-1.086,1.671-1.879,2.632-2.465
	c1.128-0.668,2.382-1.002,3.886-1.002c3.927,0,6.894,2.758,6.894,8.858v12.033h-6.184V27.26c0-2.967-0.96-4.68-3.008-4.68
	c-1.462,0-2.507,1.003-2.924,2.215c-0.167,0.459-0.25,1.128-0.25,1.629v11.95h-6.184V26.926c0-2.59-0.92-4.346-2.925-4.346
	c-1.63,0-2.591,1.254-2.967,2.298c-0.208,0.502-0.251,1.087-0.251,1.588v11.908h-6.184V24.461z"/>
<path fill="#1C75BC" d="M116.832,33.402c0,1.964,0.083,3.844,0.293,4.972H111.4l-0.375-2.048h-0.126
	c-1.336,1.63-3.426,2.507-5.849,2.507c-4.136,0-6.602-3.008-6.602-6.268c0-5.306,4.763-7.855,11.992-7.813v-0.292
	c0-1.087-0.585-2.633-3.718-2.633c-2.09,0-4.304,0.71-5.642,1.546L99.91,19.28c1.42-0.794,4.22-1.797,7.938-1.797
	c6.811,0,8.983,4.012,8.983,8.816V33.402z M110.648,28.723c-3.342-0.042-5.933,0.752-5.933,3.217c0,1.629,1.086,2.424,2.507,2.424
	c1.587,0,2.882-1.045,3.3-2.34c0.083-0.334,0.125-0.71,0.125-1.086V28.723z"/>
<path fill="#1C75BC" d="M119.756,24.669c0-3.008-0.084-4.972-0.167-6.726h5.473l0.209,3.76h0.167c1.045-2.966,3.552-4.22,5.516-4.22
	c0.584,0,0.877,0,1.337,0.083v6.017c-0.459-0.125-1.003-0.209-1.713-0.209c-2.34,0-3.927,1.254-4.345,3.217
	c-0.083,0.418-0.125,0.919-0.125,1.421v10.362h-6.351V24.669z"/>
<path fill="#1C75BC" d="M134.599,17.943v-3.844l6.225-1.712v5.557h4.554v4.679h-4.554v7.395c0,2.465,0.585,3.594,2.507,3.594
	c0.878,0,1.253-0.042,1.881-0.167l0.042,4.804c-0.836,0.335-2.34,0.585-4.137,0.585c-2.047,0-3.76-0.752-4.763-1.797
	c-1.17-1.211-1.754-3.176-1.754-6.058v-8.356"/>
<path fill="#FBB040" d="M179.391,14.966c-0.067,0.835-0.634,1.513-1.266,1.513c0,0-0.504,0.109-1.012,0.126
	c-0.534,0.018-1.213-0.126-1.213-0.126c-0.633,0-1.199-0.678-1.266-1.513l-1.078-13.453C173.49,0.678,174.247,0,175.249,0h3.526
	c1.002,0,1.76,0.678,1.693,1.513L179.391,14.966z"/>
<path fill="#FBB040" d="M186.525,22.037c-0.751,0.372-1.624,0.234-1.948-0.308c0,0-0.353-0.376-0.628-0.803
	c-0.292-0.449-0.518-1.105-0.518-1.105c-0.324-0.542-0.034-1.377,0.649-1.864l10.984-7.839c0.684-0.486,1.653-0.185,2.168,0.674
	l1.813,3.025c0.514,0.859,0.323,1.857-0.43,2.23L186.525,22.037z"/>
<path fill="#FBB040" d="M183.88,30.87c-0.682-0.488-0.97-1.323-0.645-1.864c0,0,0.166-0.488,0.414-0.932
	c0.258-0.468,0.732-0.975,0.732-0.975c0.327-0.542,1.198-0.678,1.95-0.306l12.085,6.007c0.751,0.373,0.942,1.372,0.426,2.23
	l-1.817,3.022c-0.515,0.858-1.487,1.159-2.168,0.671L183.88,30.87z"/>
<path fill="#FBB040" d="M174.635,33.701c0.067-0.835,0.633-1.513,1.266-1.513c0,0,0.504-0.109,1.012-0.127
	c0.535-0.018,1.213,0.127,1.213,0.127c0.631,0,1.198,0.677,1.265,1.513l1.077,13.453c0.067,0.836-0.69,1.514-1.692,1.514h-3.527
	c-1.002,0-1.759-0.677-1.692-1.514L174.635,33.701z"/>
<path fill="#FBB040" d="M167.48,22.037c0.751,0.372,1.623,0.234,1.949-0.308c0,0,0.352-0.376,0.628-0.803
	c0.291-0.449,0.516-1.105,0.516-1.105c0.324-0.542,0.035-1.377-0.648-1.864l-10.985-7.839c-0.683-0.486-1.654-0.185-2.168,0.674
	l-1.812,3.025c-0.515,0.859-0.324,1.857,0.428,2.23L167.48,22.037z"/>
<path fill="#FBB040" d="M170.125,30.87c0.682-0.488,0.97-1.323,0.645-1.864c0,0-0.166-0.488-0.414-0.932
	c-0.259-0.468-0.732-0.975-0.732-0.975c-0.327-0.542-1.199-0.678-1.95-0.306L155.589,32.8c-0.751,0.373-0.941,1.372-0.424,2.23
	l1.816,3.022c0.515,0.858,1.486,1.159,2.168,0.671L170.125,30.87z"/>
</svg>
