<?xml version="1.0" encoding="utf-8"?>
<!-- Generator: Adobe Illustrator 15.0.2, SVG Export Plug-In . SVG Version: 6.00 Build 0)  -->
<!DOCTYPE svg PUBLIC "-//W3C//DTD SVG 1.1//EN" "http://www.w3.org/Graphics/SVG/1.1/DTD/svg11.dtd">
<svg version="1.1" id="Layer_1" xmlns="http://www.w3.org/2000/svg" xmlns:xlink="http://www.w3.org/1999/xlink" x="0px" y="0px"
	 width="45.917px" height="49.667px" viewBox="0 0 45.917 49.667" enable-background="new 0 0 45.917 49.667" xml:space="preserve">
<g>
	<path fill="#FAAF40" d="M25.292,15.559c-0.067,0.835-0.634,1.513-1.266,1.513c0,0-0.504,0.109-1.012,0.126
		c-0.534,0.018-1.213-0.126-1.213-0.126c-0.633,0-1.199-0.678-1.266-1.513L19.458,2.106c-0.067-0.835,0.69-1.513,1.692-1.513h3.525
		c1.003,0,1.761,0.678,1.693,1.513L25.292,15.559z"/>
	<path fill="#FAAF40" d="M32.426,22.629c-0.751,0.372-1.623,0.234-1.947-0.308c0,0-0.353-0.376-0.628-0.803
		c-0.292-0.449-0.518-1.105-0.518-1.105c-0.323-0.542-0.034-1.377,0.649-1.864l10.984-7.839c0.684-0.486,1.653-0.185,2.168,0.674
		l1.814,3.025c0.514,0.859,0.322,1.857-0.43,2.23L32.426,22.629z"/>
	<path fill="#FAAF40" d="M29.781,31.463c-0.682-0.488-0.971-1.322-0.645-1.864c0,0,0.166-0.488,0.414-0.933
		c0.258-0.468,0.731-0.975,0.731-0.975c0.327-0.541,1.198-0.678,1.95-0.306l12.084,6.007c0.752,0.373,0.943,1.371,0.426,2.23
		l-1.816,3.022c-0.516,0.858-1.487,1.159-2.168,0.671L29.781,31.463z"/>
	<path fill="#FAAF40" d="M20.536,34.293c0.067-0.835,0.633-1.512,1.266-1.512c0,0,0.504-0.109,1.012-0.127
		c0.535-0.019,1.213,0.127,1.213,0.127c0.631,0,1.197,0.677,1.265,1.512l1.077,13.453c0.067,0.836-0.69,1.514-1.691,1.514H21.15
		c-1.002,0-1.759-0.678-1.692-1.514L20.536,34.293z"/>
	<path fill="#FAAF40" d="M13.381,22.629c0.751,0.372,1.623,0.234,1.949-0.308c0,0,0.352-0.376,0.628-0.803
		c0.291-0.449,0.516-1.105,0.516-1.105c0.324-0.542,0.035-1.377-0.648-1.864L4.841,10.709c-0.683-0.486-1.654-0.185-2.168,0.674
		L0.86,14.408c-0.515,0.859-0.324,1.857,0.428,2.23L13.381,22.629z"/>
	<path fill="#FAAF40" d="M16.027,31.463c0.682-0.488,0.97-1.322,0.645-1.864c0,0-0.166-0.488-0.414-0.933
		c-0.259-0.468-0.732-0.975-0.732-0.975c-0.327-0.541-1.199-0.678-1.95-0.306L1.491,33.393c-0.751,0.373-0.941,1.371-0.424,2.23
		l1.816,3.022c0.515,0.858,1.486,1.159,2.168,0.671L16.027,31.463z"/>
</g>
</svg>
