<?xml version="1.0" encoding="utf-8"?>
<!-- Generator: Adobe Illustrator 15.0.0, SVG Export Plug-In . SVG Version: 6.00 Build 0)  -->
<!DOCTYPE svg PUBLIC "-//W3C//DTD SVG 1.1//EN" "http://www.w3.org/Graphics/SVG/1.1/DTD/svg11.dtd">
<svg version="1.1" id="Layer_1" xmlns="http://www.w3.org/2000/svg" xmlns:xlink="http://www.w3.org/1999/xlink" x="0px" y="0px"
	 width="144px" height="153px" viewBox="0 0 144 153" enable-background="new 0 0 144 153" xml:space="preserve">
<path fill="#C85827" d="M136.607-151.974c-0.93-2.861-3.389-4.959-6.359-5.429l-33.826-5.341L80.23-196.925
	c-1.324-2.794-4.139-4.575-7.23-4.575s-5.906,1.781-7.23,4.575l-16.191,34.182l-33.826,5.341c-2.973,0.47-5.43,2.567-6.359,5.429
	C9.128-151.162,9-150.327,9-149.5c0,2.089,0.818,4.133,2.344,5.657l24.973,24.973l-7.162,35.802c-0.61,3.057,0.61,6.191,3.129,8.03
	c1.398,1.021,3.055,1.538,4.719,1.538c1.332,0,2.67-0.333,3.883-1.006L73-92.348l32.115,17.842c1.213,0.673,2.551,1.006,3.885,1.006
	c1.662,0,3.318-0.518,4.717-1.538c2.518-1.839,3.739-4.974,3.128-8.03l-7.161-35.802l24.973-24.973
	c1.525-1.524,2.344-3.568,2.344-5.657C137-150.327,136.871-151.162,136.607-151.974z"/>
<linearGradient id="SVGID_1_" gradientUnits="userSpaceOnUse" x1="73" y1="-208.5" x2="73" y2="-80.4995">
	<stop  offset="0" style="stop-color:#FBC653"/>
	<stop  offset="1" style="stop-color:#F7932B"/>
</linearGradient>
<path fill="url(#SVGID_1_)" d="M136.607-158.974c-0.93-2.861-3.389-4.959-6.359-5.429l-33.826-5.341L80.23-203.925
	c-1.324-2.794-4.139-4.575-7.23-4.575s-5.906,1.781-7.23,4.575l-16.191,34.182l-33.826,5.341c-2.973,0.47-5.43,2.567-6.359,5.429
	C9.128-158.162,9-157.327,9-156.5c0,2.089,0.818,4.133,2.344,5.657l24.973,24.973l-7.162,35.802c-0.61,3.057,0.61,6.191,3.129,8.03
	c1.398,1.021,3.055,1.538,4.719,1.538c1.332,0,2.67-0.333,3.883-1.006L73-99.348l32.115,17.842c1.213,0.673,2.551,1.006,3.885,1.006
	c1.662,0,3.318-0.518,4.717-1.538c2.518-1.839,3.739-4.974,3.128-8.03l-7.161-35.802l24.973-24.973
	c1.525-1.524,2.344-3.568,2.344-5.657C137-157.327,136.871-158.162,136.607-158.974z"/>
<linearGradient id="SVGID_2_" gradientUnits="userSpaceOnUse" x1="72" y1="11" x2="72" y2="139">
	<stop  offset="0" style="stop-color:#CCCCCC"/>
	<stop  offset="1" style="stop-color:#B2B0B1"/>
</linearGradient>
<path fill="url(#SVGID_2_)" d="M135.607,60.526c-0.93-2.861-3.389-4.959-6.359-5.429l-33.826-5.341L79.23,15.575
	C77.906,12.781,75.092,11,72,11s-5.906,1.781-7.23,4.575L48.578,49.757l-33.826,5.341c-2.973,0.47-5.43,2.567-6.359,5.429
	C8.128,61.338,8,62.173,8,63c0,2.089,0.818,4.133,2.344,5.657L35.316,93.63l-7.162,35.802c-0.61,3.057,0.61,6.191,3.129,8.03
	c1.398,1.021,3.055,1.538,4.719,1.538c1.332,0,2.67-0.333,3.883-1.006L72,120.152l32.115,17.842
	c1.213,0.673,2.551,1.006,3.885,1.006c1.662,0,3.318-0.518,4.717-1.538c2.518-1.839,3.739-4.974,3.128-8.03l-7.161-35.802
	l24.973-24.973C135.182,67.133,136,65.089,136,63C136,62.173,135.871,61.338,135.607,60.526z"/>
<g>
	<line fill="none" stroke="#606161" stroke-miterlimit="10" x1="360.5" y1="55.5" x2="425.5" y2="120.5"/>
	<line fill="none" stroke="#606161" stroke-miterlimit="10" x1="360.5" y1="120.5" x2="425.5" y2="55.5"/>
</g>
</svg>
