<?xml version="1.0" encoding="utf-8"?>
<!-- Generator: Adobe Illustrator 15.0.0, SVG Export Plug-In . SVG Version: 6.00 Build 0)  -->
<!DOCTYPE svg PUBLIC "-//W3C//DTD SVG 1.1//EN" "http://www.w3.org/Graphics/SVG/1.1/DTD/svg11.dtd">
<svg version="1.1" id="Layer_1" xmlns="http://www.w3.org/2000/svg" xmlns:xlink="http://www.w3.org/1999/xlink" x="0px" y="0px"
	 width="144px" height="153px" viewBox="0 0 144 153" enable-background="new 0 0 144 153" xml:space="preserve">
<path fill="#C85827" d="M136.607,64.026c-0.93-2.861-3.389-4.959-6.359-5.429l-33.826-5.341L80.23,19.075
	C78.906,16.281,76.092,14.5,73,14.5s-5.906,1.781-7.23,4.575L49.578,53.257l-33.826,5.341c-2.973,0.47-5.43,2.567-6.359,5.429
	C9.128,64.838,9,65.673,9,66.5c0,2.089,0.818,4.133,2.344,5.657L36.316,97.13l-7.162,35.802c-0.61,3.057,0.61,6.191,3.129,8.03
	c1.398,1.021,3.055,1.538,4.719,1.538c1.332,0,2.67-0.333,3.883-1.006L73,123.652l32.115,17.842
	c1.213,0.673,2.551,1.006,3.885,1.006c1.662,0,3.318-0.518,4.717-1.538c2.518-1.839,3.739-4.974,3.128-8.03l-7.161-35.802
	l24.973-24.973C136.182,70.633,137,68.589,137,66.5C137,65.673,136.871,64.838,136.607,64.026z"/>
<linearGradient id="SVGID_1_" gradientUnits="userSpaceOnUse" x1="73" y1="7.5" x2="73" y2="135.5">
	<stop  offset="0" style="stop-color:#FBC653"/>
	<stop  offset="1" style="stop-color:#F7932B"/>
</linearGradient>
<path fill="url(#SVGID_1_)" d="M136.607,57.026c-0.93-2.861-3.389-4.959-6.359-5.429l-33.826-5.341L80.23,12.075
	C78.906,9.281,76.092,7.5,73,7.5s-5.906,1.781-7.23,4.575L49.578,46.257l-33.826,5.341c-2.973,0.47-5.43,2.567-6.359,5.429
	C9.128,57.838,9,58.673,9,59.5c0,2.089,0.818,4.133,2.344,5.657L36.316,90.13l-7.162,35.802c-0.61,3.057,0.61,6.191,3.129,8.03
	c1.398,1.021,3.055,1.538,4.719,1.538c1.332,0,2.67-0.333,3.883-1.006L73,116.652l32.115,17.842
	c1.213,0.673,2.551,1.006,3.885,1.006c1.662,0,3.318-0.518,4.717-1.538c2.518-1.839,3.739-4.974,3.128-8.03l-7.161-35.802
	l24.973-24.973C136.182,63.633,137,61.589,137,59.5C137,58.673,136.871,57.838,136.607,57.026z"/>
<linearGradient id="SVGID_2_" gradientUnits="userSpaceOnUse" x1="232" y1="11" x2="232" y2="139">
	<stop  offset="0" style="stop-color:#CCCCCC"/>
	<stop  offset="1" style="stop-color:#B2B0B1"/>
</linearGradient>
<path fill="url(#SVGID_2_)" d="M295.607,60.526c-0.93-2.861-3.389-4.959-6.359-5.429l-33.826-5.341L239.23,15.575
	C237.906,12.781,235.092,11,232,11s-5.906,1.781-7.23,4.575l-16.191,34.182l-33.826,5.341c-2.973,0.47-5.43,2.567-6.359,5.429
	C168.128,61.338,168,62.173,168,63c0,2.089,0.818,4.133,2.344,5.657l24.973,24.973l-7.162,35.802c-0.61,3.057,0.61,6.191,3.129,8.03
	c1.398,1.021,3.055,1.538,4.719,1.538c1.332,0,2.67-0.333,3.883-1.006L232,120.152l32.115,17.842
	c1.213,0.673,2.551,1.006,3.885,1.006c1.662,0,3.318-0.518,4.717-1.538c2.518-1.839,3.739-4.974,3.128-8.03l-7.161-35.802
	l24.973-24.973C295.182,67.133,296,65.089,296,63C296,62.173,295.871,61.338,295.607,60.526z"/>
<g>
	<line fill="none" stroke="#606161" stroke-miterlimit="10" x1="360.5" y1="55.5" x2="425.5" y2="120.5"/>
	<line fill="none" stroke="#606161" stroke-miterlimit="10" x1="360.5" y1="120.5" x2="425.5" y2="55.5"/>
</g>
</svg>
